# xmcd
#
# Track frame offsets: 
#        150
#        16277
#        47019
#        80034
#        98856
#        111696
#        128336
#        144783
#        162254
#        180584
#        195753
#        215856
#        243153
#
# Disc length: 3717 seconds
#
# Revision: 0
# Processed by: cddbd v1.5.2PL0 Copyright (c) Steve Scherf et al.
# Submitted via: ExactAudioCopy v0.99pb4
#
DISCID=a80e830d
DTITLE=Joe Bonamassa - Blues Deluxe
DYEAR=2003
DGENRE=Blues
TTITLE0=You upset me baby
TTITLE1=Burning hell 
TTITLE2=Blues deluxe
TTITLE3=Man of many words
TTITLE4=Woke up dreaming
TTITLE5=I don't live anywhere
TTITLE6=Wild about you baby
TTITLE7=Long distance blues
TTITLE8=Pack it up
TTITLE9=Left overs
TTITLE10=Walking blues
TTITLE11=Mumbling word
TTITLE12=Data
EXTD=
EXTT0=
EXTT1=
EXTT2=
EXTT3=
EXTT4=
EXTT5=
EXTT6=
EXTT7=
EXTT8=
EXTT9=
EXTT10=
EXTT11=
EXTT12=
PLAYORDER=
